<svg xmlns="http://www.w3.org/2000/svg" viewBox="0 0 1708 296" width="1708" height="296" role="img" aria-label="Retail Avenue logo">
  <g fill="#201f1d" fill-rule="evenodd">
    <path d="M 940.0 131.0 L 940.0 263.0 L 979.0 263.0 L 979.0 131.0 Z
M 786.0 144.0 L 785.0 146.0 L 789.0 154.0 L 791.0 156.0 L 797.0 169.0 L 801.0 170.0 L 810.0 164.0 L 820.0 160.0 L 832.0 158.0 L 846.0 159.0 L 856.0 163.0 L 864.0 171.0 L 867.0 180.0 L 866.0 185.0 L 824.0 185.0 L 813.0 187.0 L 804.0 190.0 L 792.0 197.0 L 785.0 205.0 L 782.0 211.0 L 780.0 218.0 L 780.0 233.0 L 781.0 237.0 L 785.0 246.0 L 792.0 254.0 L 801.0 260.0 L 809.0 263.0 L 818.0 265.0 L 842.0 265.0 L 846.0 264.0 L 858.0 259.0 L 867.0 251.0 L 870.0 252.0 L 870.0 263.0 L 906.0 263.0 L 906.0 185.0 L 905.0 175.0 L 902.0 163.0 L 897.0 153.0 L 886.0 141.0 L 878.0 136.0 L 859.0 130.0 L 852.0 129.0 L 829.0 129.0 L 806.0 134.0 L 796.0 138.0 Z
M 816.0 222.0 L 819.0 215.0 L 823.0 211.0 L 833.0 207.0 L 867.0 208.0 L 867.0 220.0 L 865.0 226.0 L 857.0 235.0 L 848.0 239.0 L 843.0 240.0 L 834.0 240.0 L 829.0 239.0 L 823.0 236.0 L 817.0 229.0 Z
M 549.0 134.0 L 536.0 141.0 L 522.0 154.0 L 512.0 172.0 L 509.0 184.0 L 508.0 199.0 L 511.0 218.0 L 516.0 230.0 L 522.0 239.0 L 532.0 249.0 L 539.0 254.0 L 551.0 260.0 L 557.0 262.0 L 572.0 265.0 L 597.0 265.0 L 607.0 263.0 L 622.0 257.0 L 628.0 253.0 L 638.0 242.0 L 619.0 222.0 L 617.0 222.0 L 609.0 229.0 L 597.0 234.0 L 591.0 235.0 L 578.0 235.0 L 569.0 233.0 L 560.0 228.0 L 552.0 220.0 L 548.0 213.0 L 549.0 208.0 L 646.0 208.0 L 646.0 206.0 L 647.0 205.0 L 647.0 187.0 L 646.0 181.0 L 642.0 167.0 L 637.0 157.0 L 629.0 147.0 L 622.0 141.0 L 609.0 134.0 L 600.0 131.0 L 591.0 129.0 L 568.0 129.0 L 558.0 131.0 Z
M 547.0 181.0 L 551.0 172.0 L 561.0 162.0 L 567.0 159.0 L 575.0 157.0 L 583.0 157.0 L 589.0 158.0 L 594.0 160.0 L 603.0 167.0 L 606.0 171.0 L 610.0 180.0 L 609.0 185.0 L 547.0 184.0 Z
M 169.0 102.0 L 120.0 122.0 L 49.0 153.0 L 49.0 233.0 L 45.0 236.0 L 25.0 242.0 L 25.0 265.0 L 31.0 264.0 L 47.0 259.0 L 63.0 256.0 L 74.0 255.0 L 74.0 233.0 L 75.0 232.0 L 75.0 176.0 L 78.0 173.0 L 89.0 169.0 L 92.0 170.0 L 92.0 255.0 L 122.0 254.0 L 122.0 175.0 L 124.0 154.0 L 131.0 152.0 L 136.0 149.0 L 139.0 150.0 L 139.0 254.0 L 159.0 255.0 L 178.0 258.0 L 209.0 266.0 L 209.0 250.0 L 189.0 242.0 L 185.0 239.0 L 169.0 235.0 L 168.0 210.0 Z
M 682.0 100.0 L 681.0 134.0 L 662.0 134.0 L 662.0 164.0 L 682.0 164.0 L 682.0 225.0 L 685.0 238.0 L 691.0 249.0 L 698.0 256.0 L 709.0 262.0 L 721.0 265.0 L 743.0 265.0 L 755.0 262.0 L 761.0 259.0 L 762.0 255.0 L 755.0 237.0 L 754.0 231.0 L 752.0 231.0 L 742.0 235.0 L 733.0 235.0 L 730.0 234.0 L 722.0 227.0 L 720.0 218.0 L 720.0 165.0 L 722.0 163.0 L 754.0 163.0 L 754.0 134.0 L 720.0 133.0 L 720.0 100.0 Z
M 337.0 90.0 L 337.0 263.0 L 377.0 263.0 L 377.0 216.0 L 379.0 214.0 L 396.0 215.0 L 412.0 214.0 L 414.0 215.0 L 418.0 219.0 L 438.0 250.0 L 448.0 263.0 L 491.0 263.0 L 490.0 260.0 L 455.0 209.0 L 455.0 207.0 L 457.0 205.0 L 466.0 200.0 L 479.0 186.0 L 484.0 176.0 L 487.0 166.0 L 488.0 159.0 L 488.0 145.0 L 487.0 138.0 L 483.0 125.0 L 477.0 115.0 L 466.0 104.0 L 458.0 99.0 L 445.0 94.0 L 432.0 91.0 L 423.0 90.0 Z
M 377.0 124.0 L 379.0 122.0 L 415.0 122.0 L 427.0 124.0 L 434.0 127.0 L 442.0 134.0 L 447.0 144.0 L 447.0 159.0 L 444.0 167.0 L 437.0 175.0 L 431.0 179.0 L 421.0 182.0 L 377.0 181.0 Z
M 1015.0 81.0 L 1015.0 263.0 L 1054.0 263.0 L 1054.0 81.0 Z
M 942.0 75.0 L 936.0 84.0 L 935.0 87.0 L 935.0 95.0 L 938.0 103.0 L 945.0 110.0 L 953.0 113.0 L 966.0 113.0 L 974.0 110.0 L 981.0 103.0 L 984.0 95.0 L 984.0 88.0 L 982.0 82.0 L 975.0 74.0 L 972.0 72.0 L 966.0 70.0 L 952.0 70.0 Z
M 186.0 26.0 L 174.0 32.0 L 172.0 32.0 L 96.0 70.0 L 96.0 120.0 L 99.0 120.0 L 114.0 113.0 L 116.0 90.0 L 118.0 88.0 L 185.0 56.0 Z"/>
  </g>
  <g fill="#a68a4e" fill-rule="evenodd">
    <path d="M 252.0 196.0 L 246.0 198.0 L 239.0 202.0 L 229.0 213.0 L 224.0 225.0 L 224.0 240.0 L 226.0 247.0 L 231.0 256.0 L 240.0 264.0 L 251.0 269.0 L 259.0 270.0 L 267.0 269.0 L 273.0 267.0 L 281.0 262.0 L 289.0 253.0 L 293.0 245.0 L 294.0 241.0 L 294.0 225.0 L 290.0 214.0 L 282.0 204.0 L 276.0 200.0 L 266.0 196.0 Z
M 1608.0 172.0 L 1607.0 174.0 L 1608.0 204.0 L 1607.0 212.0 L 1607.0 230.0 L 1608.0 241.0 L 1607.0 262.0 L 1608.0 264.0 L 1682.0 263.0 L 1682.0 246.0 L 1630.0 245.0 L 1631.0 226.0 L 1674.0 225.0 L 1673.0 208.0 L 1630.0 207.0 L 1631.0 190.0 L 1680.0 189.0 L 1679.0 172.0 Z
M 1502.0 172.0 L 1502.0 234.0 L 1504.0 242.0 L 1509.0 251.0 L 1515.0 257.0 L 1521.0 261.0 L 1528.0 264.0 L 1541.0 266.0 L 1548.0 266.0 L 1563.0 263.0 L 1572.0 258.0 L 1582.0 247.0 L 1585.0 239.0 L 1587.0 229.0 L 1586.0 172.0 L 1565.0 172.0 L 1565.0 174.0 L 1564.0 175.0 L 1564.0 231.0 L 1561.0 238.0 L 1555.0 244.0 L 1550.0 246.0 L 1539.0 246.0 L 1532.0 243.0 L 1526.0 236.0 L 1524.0 230.0 L 1523.0 172.0 Z
M 1394.0 172.0 L 1395.0 264.0 L 1416.0 263.0 L 1417.0 213.0 L 1419.0 213.0 L 1423.0 217.0 L 1423.0 218.0 L 1445.0 243.0 L 1455.0 256.0 L 1463.0 264.0 L 1481.0 263.0 L 1480.0 172.0 L 1459.0 172.0 L 1458.0 223.0 L 1456.0 223.0 L 1452.0 219.0 L 1413.0 172.0 Z
M 1302.0 173.0 L 1303.0 236.0 L 1302.0 261.0 L 1303.0 263.0 L 1305.0 264.0 L 1377.0 263.0 L 1376.0 246.0 L 1325.0 245.0 L 1326.0 226.0 L 1369.0 225.0 L 1368.0 208.0 L 1325.0 207.0 L 1326.0 190.0 L 1374.0 189.0 L 1375.0 187.0 L 1374.0 172.0 Z
M 1192.0 175.0 L 1194.0 182.0 L 1201.0 198.0 L 1206.0 207.0 L 1208.0 214.0 L 1219.0 239.0 L 1229.0 259.0 L 1230.0 263.0 L 1254.0 263.0 L 1277.0 209.0 L 1282.0 200.0 L 1283.0 195.0 L 1286.0 188.0 L 1290.0 181.0 L 1292.0 176.0 L 1292.0 172.0 L 1271.0 172.0 L 1269.0 174.0 L 1267.0 181.0 L 1265.0 183.0 L 1260.0 197.0 L 1255.0 206.0 L 1247.0 227.0 L 1243.0 233.0 L 1240.0 232.0 L 1240.0 230.0 L 1237.0 225.0 L 1230.0 206.0 L 1225.0 197.0 L 1222.0 188.0 L 1215.0 173.0 Z
M 1133.0 173.0 L 1131.0 177.0 L 1131.0 179.0 L 1123.0 194.0 L 1103.0 240.0 L 1096.0 253.0 L 1093.0 260.0 L 1094.0 264.0 L 1116.0 263.0 L 1118.0 256.0 L 1121.0 251.0 L 1122.0 247.0 L 1124.0 245.0 L 1168.0 246.0 L 1174.0 261.0 L 1177.0 264.0 L 1199.0 263.0 L 1199.0 260.0 L 1190.0 243.0 L 1182.0 223.0 L 1174.0 208.0 L 1168.0 195.0 L 1165.0 186.0 L 1162.0 182.0 L 1158.0 172.0 Z
M 1143.0 199.0 L 1148.0 199.0 L 1152.0 210.0 L 1159.0 224.0 L 1158.0 227.0 L 1133.0 226.0 L 1134.0 220.0 L 1142.0 203.0 Z
M 187.0 25.0 L 187.0 30.0 L 186.0 31.0 L 187.0 81.0 L 185.0 178.0 L 185.0 238.0 L 187.0 240.0 L 207.0 249.0 L 210.0 248.0 L 210.0 189.0 L 212.0 141.0 L 214.0 141.0 L 222.0 145.0 L 247.0 160.0 L 249.0 160.0 L 254.0 164.0 L 254.0 174.0 L 265.0 180.0 L 267.0 180.0 L 275.0 185.0 L 278.0 185.0 L 278.0 171.0 L 279.0 170.0 L 280.0 86.0 L 279.0 64.0 L 261.0 57.0 L 247.0 50.0 L 240.0 48.0 L 238.0 46.0 L 219.0 39.0 L 212.0 35.0 L 191.0 27.0 L 189.0 25.0 Z
M 212.0 84.0 L 218.0 85.0 L 222.0 88.0 L 224.0 88.0 L 252.0 103.0 L 254.0 105.0 L 253.0 123.0 L 250.0 123.0 L 246.0 120.0 L 244.0 120.0 L 213.0 104.0 L 211.0 102.0 Z"/>
  </g>
</svg>